<?xml version='1.0' encoding='utf-8'?>
<svg xmlns="http://www.w3.org/2000/svg" width="20" height="20" viewBox="0 0 20 20" fill="none">
<defs><linearGradient id="goldToOrange" x1="0%" y1="0%" x2="100%" y2="0%"><stop offset="0%" stop-color="#FFD700" /><stop offset="100%" stop-color="#FF8C00" /></linearGradient></defs><path fill-rule="evenodd" clip-rule="evenodd" d="M1.875 8.125C1.875 4.67322 4.67322 1.875 8.125 1.875C11.5768 1.875 14.375 4.67322 14.375 8.125C14.375 11.5768 11.5768 14.375 8.125 14.375C4.67322 14.375 1.875 11.5768 1.875 8.125ZM8.125 0C3.63769 0 0 3.63769 0 8.125C0 12.6124 3.63769 16.25 8.125 16.25C10.0309 16.25 11.7835 15.5938 13.1691 14.495L17.4621 18.7879L18.125 19.4509L19.4509 18.125L18.7879 17.4621L14.495 13.1691C15.5938 11.7835 16.25 10.0309 16.25 8.125C16.25 3.63769 12.6124 0 8.125 0Z" fill="url(#goldToOrange)" />
</svg>